<svg version="1" xmlns="http://www.w3.org/2000/svg" width="682.667" height="682.667" viewBox="0 0 512.000000 512.000000"><path d="M433.3 2.4c-14.3 5.3-24.7 18.4-25.9 32.9l-.6 6.2-22.1 21.8c-12.2 12-34.4 33.9-49.3 48.5-14.8 14.7-27.8 27.3-28.7 28.1-1.6 1.3-3.7-.1-16.3-11.4-5.2-4.7-11.5-10.1-35.9-31.5-15.4-13.4-29.1-25.5-30.5-26.8-1.4-1.3-3.2-2.7-4.1-3.2-1.2-.7-18 15.6-80.9 78.6C95.4 189.2 59.1 225 58.4 225c-4.8 0-15.4 5.5-21.4 11.1-9.1 8.5-13.6 23.5-10.8 36.2 5.7 26.6 37.4 40.3 59.6 25.7 7.6-5 11.3-9.2 15.3-17 2.9-5.7 3.3-7.6 3.6-15.5l.2-9 9.4-9c10.5-10.1 45.6-43.8 55.1-52.9 3.3-3.2 15.1-14.5 26.1-25.1 26.4-25.4 27.7-26.6 28.5-26.3.6.3 9.2 7.7 16 13.8 1.5 1.4 5.1 4.5 8 7 2.9 2.5 6.2 5.4 7.4 6.5 1.2 1.1 5 4.5 8.6 7.5 3.6 3 7.4 6.4 8.6 7.5 1.2 1.1 4.5 4 7.4 6.5 2.9 2.5 6.2 5.4 7.4 6.5 1.2 1.1 5 4.5 8.6 7.5 3.6 3 7.5 6.5 8.8 7.8l2.4 2.3 16.6-16.4c9.2-9.1 21.5-21.1 27.3-26.8 5.8-5.7 29.4-28.9 52.3-51.4 23-22.6 41.8-41.1 41.9-41.2.1 0 2.7-.4 5.7-.8 15.8-2 28.4-12.1 33.4-26.9 6.5-19.2-2.6-40.2-21.3-48.9-8.9-4.2-20.6-4.7-29.8-1.3zM374.5 201c-6.8 1.5-12.5 6.1-16.1 13-1.8 3.4-1.9 9-2.1 140.5-.1 75.3 0 138.2.3 139.6.9 4.1 7.6 12.2 12.4 14.9l4.5 2.5 33 .2c36.2.3 38.8 0 45.5-5.6 2-1.6 4.6-5 6-7.7l2.5-4.9v-275l-2.4-4.5c-1.2-2.5-3.8-5.9-5.7-7.7-6.2-5.7-8.7-6-43.4-6-17.3 0-32.8.3-34.5.7zM218.6 268.5c-8.1 2.8-13.2 8.8-14.4 17.1-.4 2.7-.7 50.9-.6 107l.1 102.2 2.4 4.8c2.9 5.8 9.2 10.9 14.5 11.7 2.2.3 19 .6 37.4.6 31.1-.1 33.8-.2 37.5-2 5.5-2.7 9.2-6.5 11.2-11.7 1.5-4 1.6-13.1 1.6-107.5 0-56.8-.3-104.8-.7-106.8-1-5.4-5.7-11.3-11.3-14-4.8-2.4-5.1-2.4-39.4-2.5-25.2-.1-35.6.2-38.3 1.1zM66.9 336.2c-5.9 1-10.6 4.5-13.3 9.8l-2.3 4.5.1 74 .1 74 2.3 4c1.3 2.2 4 5.1 6 6.5l3.7 2.5 38.8.2c37.8.2 38.9.2 43.3-1.9 2.9-1.3 5.6-3.6 7.2-6.1l2.7-4.1.3-73.3c.2-52-.1-74.7-.9-77.6-1.5-5.8-7.5-11.4-13.1-12.2-6.1-.9-69.8-1.1-74.9-.3z"/></svg>